<svg width="38" height="38" viewBox="0 0 38 38" fill="none" xmlns="http://www.w3.org/2000/svg">
<path fill-rule="evenodd" clip-rule="evenodd" d="M37.75 36.1875C37.75 36.6019 37.5854 36.9993 37.2924 37.2924C36.9993 37.5854 36.6019 37.75 36.1875 37.75H17.4375C17.0231 37.75 16.6257 37.5854 16.3327 37.2924C16.0396 36.9993 15.875 36.6019 15.875 36.1875C15.875 35.7731 16.0396 35.3757 16.3327 35.0827C16.6257 34.7896 17.0231 34.625 17.4375 34.625H32.4156L0.70627 2.91877C0.560995 2.7735 0.445758 2.60103 0.367135 2.41122C0.288513 2.22141 0.248047 2.01797 0.248047 1.81252C0.248047 1.60707 0.288513 1.40363 0.367135 1.21382C0.445758 1.02401 0.560995 0.851545 0.70627 0.70627C0.851545 0.560995 1.02401 0.445758 1.21382 0.367135C1.40363 0.288513 1.60707 0.248047 1.81252 0.248047C2.01797 0.248047 2.22141 0.288513 2.41122 0.367135C2.60103 0.445758 2.7735 0.560995 2.91877 0.70627L34.625 32.4156V17.4375C34.625 17.0231 34.7896 16.6257 35.0827 16.3327C35.3757 16.0396 35.7731 15.875 36.1875 15.875C36.6019 15.875 36.9993 16.0396 37.2924 16.3327C37.5854 16.6257 37.75 17.0231 37.75 17.4375V36.1875Z" fill="black"/>
</svg>
