<svg width="30" height="40" viewBox="0 0 30 40" fill="none" xmlns="http://www.w3.org/2000/svg">
<path fill-rule="evenodd" clip-rule="evenodd" d="M0 25C0 16.6667 5 9.16667 15 0C25 9.16667 30 16.6667 30 25C30 28.9782 28.4196 32.7936 25.6066 35.6066C22.7936 38.4196 18.9782 40 15 40C11.0218 40 7.20644 38.4196 4.3934 35.6066C1.58035 32.7936 0 28.9782 0 25V25ZM26.5067 22.6767C22.2433 21.07 17.6267 23.21 13.3 25.21C9.77667 26.8367 6.44667 28.3767 3.65667 27.74C3.4412 26.8426 3.33267 25.9229 3.33333 25C3.33333 18.7067 6.75667 12.5733 15 4.58C22.2267 11.5867 25.75 17.1667 26.5067 22.68V22.6767Z" fill="black"/>
</svg>
