<svg width="34" height="34" viewBox="0 0 34 34" fill="none" xmlns="http://www.w3.org/2000/svg">
<path fill-rule="evenodd" clip-rule="evenodd" d="M17 27.4166C19.7627 27.4166 22.4122 26.3192 24.3657 24.3657C26.3192 22.4122 27.4167 19.7626 27.4167 17C27.4167 14.2373 26.3192 11.5878 24.3657 9.63428C22.4122 7.68078 19.7627 6.58331 17 6.58331C14.2374 6.58331 11.5878 7.68078 9.63434 9.63428C7.68084 11.5878 6.58337 14.2373 6.58337 17C6.58337 19.7626 7.68084 22.4122 9.63434 24.3657C11.5878 26.3192 14.2374 27.4166 17 27.4166ZM17 33.6666C21.4203 33.6666 25.6595 31.9107 28.7852 28.7851C31.9108 25.6595 33.6667 21.4203 33.6667 17C33.6667 12.5797 31.9108 8.34047 28.7852 5.21487C25.6595 2.08926 21.4203 0.333313 17 0.333313C12.5798 0.333313 8.34053 2.08926 5.21493 5.21487C2.08932 8.34047 0.333374 12.5797 0.333374 17C0.333374 21.4203 2.08932 25.6595 5.21493 28.7851C8.34053 31.9107 12.5798 33.6666 17 33.6666V33.6666Z" fill="black"/>
</svg>
