<svg width="48" height="48" viewBox="0 0 48 48" fill="none" xmlns="http://www.w3.org/2000/svg">
<path d="M45.8472 1.93055C44.7651 0.893719 43.3171 0.326527 41.8186 0.352542C40.3202 0.378556 38.8927 0.99567 37.8472 2.06944L30.6806 9.25C29.8932 10.0338 28.8355 10.4864 27.7249 10.5148C26.6142 10.5432 25.5348 10.1453 24.7084 9.40278L22.7361 11.375L36.5 25.0972L38.4722 23.125C37.7041 22.2978 37.2819 21.208 37.2922 20.0792C37.3026 18.9505 37.7447 17.8685 38.5278 17.0556L45.7084 9.875C46.7687 8.83356 47.3775 7.41723 47.4035 5.9312C47.4294 4.44517 46.8706 3.00842 45.8472 1.93055Z" fill="black"/>
<path d="M29.8056 22.3195L9.36113 42.7639C9.10797 43.0423 8.80089 43.2663 8.45852 43.4225C8.11614 43.5786 7.74562 43.6635 7.36944 43.6721C6.99325 43.6807 6.61924 43.6128 6.2701 43.4724C5.92096 43.3321 5.60397 43.1223 5.33836 42.8558C5.07276 42.5892 4.86408 42.2715 4.72499 41.9218C4.5859 41.5722 4.51929 41.198 4.52921 40.8218C4.53913 40.4457 4.62538 40.0754 4.78271 39.7336C4.94004 39.3918 5.16518 39.0855 5.44446 38.8333L25.875 18.4445L23.9167 16.4861L3.47224 36.875C2.60672 37.7296 2.04559 38.8447 1.87498 40.049C1.70437 41.2533 1.93371 42.4803 2.52779 43.5417L0.472238 45.5972C0.213556 45.8575 0.0683594 46.2095 0.0683594 46.5764C0.0683594 46.9433 0.213556 47.2953 0.472238 47.5556C0.732464 47.8142 1.08448 47.9594 1.4514 47.9594C1.81833 47.9594 2.17035 47.8142 2.43057 47.5556L4.43057 45.5556C5.30053 46.1008 6.30664 46.3897 7.33335 46.3889C8.07705 46.3886 8.81335 46.2412 9.49984 45.9551C10.1863 45.6691 10.8095 45.2501 11.3334 44.7222L31.7778 24.2917L29.8056 22.3195Z" fill="black"/>
</svg>
