<svg width="42" height="38" viewBox="0 0 42 38" fill="none" xmlns="http://www.w3.org/2000/svg">
<path d="M39.75 25.25V22.125C39.75 20.7437 39.2012 19.4189 38.2245 18.4422C37.2477 17.4654 35.923 16.9167 34.5416 16.9167C33.1603 16.9167 31.8355 17.4654 30.8588 18.4422C29.882 19.4189 29.3333 20.7437 29.3333 22.125V25.25C28.7928 25.2866 28.2839 25.5178 27.9008 25.9009C27.5178 26.2839 27.2865 26.7928 27.25 27.3333V35.6667C27.2865 36.2072 27.5178 36.7161 27.9008 37.0991C28.2839 37.4822 28.7928 37.7134 29.3333 37.75H39.75C40.2905 37.7134 40.7994 37.4822 41.1824 37.0991C41.5655 36.7161 41.7967 36.2072 41.8333 35.6667V27.3333C41.7967 26.7928 41.5655 26.2839 41.1824 25.9009C40.7994 25.5178 40.2905 25.2866 39.75 25.25ZM37.6666 25.25H31.4166V22.125C31.4166 21.2962 31.7459 20.5013 32.3319 19.9153C32.918 19.3292 33.7128 19 34.5416 19C35.3704 19 36.1653 19.3292 36.7513 19.9153C37.3374 20.5013 37.6666 21.2962 37.6666 22.125V25.25ZM41.8333 4.41667H0.166626V0.25H41.8333V4.41667ZM41.8333 12.75H0.166626V8.58333H41.8333V12.75ZM23.0833 21.0833H0.166626V16.9167H23.0833V21.0833ZM23.0833 29.4167H0.166626V25.25H23.0833V29.4167ZM23.0833 37.75H0.166626V33.5833H23.0833V37.75Z" fill="black"/>
</svg>
