<svg width="38" height="38" viewBox="0 0 38 38" fill="none" xmlns="http://www.w3.org/2000/svg">
<path fill-rule="evenodd" clip-rule="evenodd" d="M27.6666 3.99999C29.0933 3.99999 30.0666 3.99999 30.8133 4.06332C31.5466 4.12332 31.92 4.22999 32.18 4.36332C32.8071 4.6829 33.317 5.19281 33.6366 5.81999C33.77 6.07999 33.8766 6.45332 33.9366 7.18666C34 7.93666 34 8.90666 34 10.3333V12.3333C34 12.7753 34.1755 13.1993 34.4881 13.5118C34.8007 13.8244 35.2246 14 35.6666 14C36.1087 14 36.5326 13.8244 36.8451 13.5118C37.1577 13.1993 37.3333 12.7753 37.3333 12.3333V10.2667C37.3333 8.92332 37.3333 7.81666 37.26 6.91332C37.1833 5.97666 37.02 5.11332 36.6066 4.30666C35.9675 3.0523 34.9476 2.03247 33.6933 1.39332C32.8833 0.97999 32.0233 0.816657 31.0866 0.73999C30.1866 0.666657 29.0766 0.666656 27.7333 0.666656H25.6666C25.2246 0.666656 24.8007 0.842252 24.4881 1.15481C24.1756 1.46737 24 1.8913 24 2.33332C24 2.77535 24.1756 3.19927 24.4881 3.51183C24.8007 3.82439 25.2246 3.99999 25.6666 3.99999H27.6666ZM12.3333 0.666656H10.2666C8.92329 0.666656 7.81663 0.666657 6.91329 0.73999C5.97663 0.816657 5.11329 0.97999 4.30663 1.39332C3.05227 2.03247 2.03244 3.0523 1.39329 4.30666C0.979959 5.11666 0.816626 5.97666 0.73996 6.91332C0.666626 7.81332 0.666626 8.92332 0.666626 10.2667V12.3333C0.666626 12.7753 0.842221 13.1993 1.15478 13.5118C1.46734 13.8244 1.89127 14 2.33329 14C2.77532 14 3.19924 13.8244 3.5118 13.5118C3.82436 13.1993 3.99996 12.7753 3.99996 12.3333V10.3333C3.99996 8.90666 3.99996 7.93332 4.06329 7.18666C4.12329 6.45332 4.22996 6.07999 4.36329 5.81999C4.68287 5.19281 5.19278 4.6829 5.81996 4.36332C6.07996 4.22999 6.45329 4.12332 7.18663 4.06332C7.93329 3.99999 8.90663 3.99999 10.3333 3.99999H12.3333C12.7753 3.99999 13.1992 3.82439 13.5118 3.51183C13.8244 3.19927 14 2.77535 14 2.33332C14 1.8913 13.8244 1.46737 13.5118 1.15481C13.1992 0.842252 12.7753 0.666656 12.3333 0.666656V0.666656ZM37.3333 25.6667C37.3333 25.2246 37.1577 24.8007 36.8451 24.4881C36.5326 24.1756 36.1087 24 35.6666 24C35.2246 24 34.8007 24.1756 34.4881 24.4881C34.1755 24.8007 34 25.2246 34 25.6667V27.6667C34 29.0933 34 30.0667 33.9366 30.8133C33.8766 31.5467 33.77 31.92 33.6366 32.18C33.317 32.8072 32.8071 33.3171 32.18 33.6367C31.92 33.77 31.5466 33.8767 30.8133 33.9367C30.0633 34 29.0933 34 27.6666 34H25.6666C25.2246 34 24.8007 34.1756 24.4881 34.4881C24.1756 34.8007 24 35.2246 24 35.6667C24 36.1087 24.1756 36.5326 24.4881 36.8452C24.8007 37.1577 25.2246 37.3333 25.6666 37.3333H27.7333C29.0766 37.3333 30.1833 37.3333 31.0866 37.26C32.0233 37.1833 32.8866 37.02 33.6933 36.6067C34.9476 35.9675 35.9675 34.9477 36.6066 33.6933C37.02 32.8833 37.1833 32.0233 37.26 31.0867C37.3333 30.1867 37.3333 29.0767 37.3333 27.7367V25.6667V25.6667ZM2.33329 24C2.77532 24 3.19924 24.1756 3.5118 24.4881C3.82436 24.8007 3.99996 25.2246 3.99996 25.6667V27.6667C3.99996 29.0933 3.99996 30.0667 4.06329 30.8133C4.12329 31.5467 4.22996 31.92 4.36329 32.18C4.68287 32.8072 5.19278 33.3171 5.81996 33.6367C6.07996 33.77 6.45329 33.8767 7.18663 33.9367C7.93663 34 8.90663 34 10.3333 34H12.3333C12.7753 34 13.1992 34.1756 13.5118 34.4881C13.8244 34.8007 14 35.2246 14 35.6667C14 36.1087 13.8244 36.5326 13.5118 36.8452C13.1992 37.1577 12.7753 37.3333 12.3333 37.3333H10.2666C8.92329 37.3333 7.81663 37.3333 6.91329 37.26C5.97663 37.1833 5.11329 37.02 4.30663 36.6067C3.05227 35.9675 2.03244 34.9477 1.39329 33.6933C0.979959 32.8833 0.816626 32.0233 0.73996 31.0867C0.666626 30.1867 0.666626 29.0767 0.666626 27.7333V25.6667C0.666626 25.2246 0.842221 24.8007 1.15478 24.4881C1.46734 24.1756 1.89127 24 2.33329 24Z" fill="black"/>
</svg>
