<svg width="21" height="21" viewBox="0 0 21 21" fill="none" xmlns="http://www.w3.org/2000/svg">
<path d="M16.5 0C16.8978 0 17.2794 0.158035 17.5607 0.43934C17.842 0.720644 18 1.10218 18 1.5C18 1.89782 17.842 2.27936 17.5607 2.56066C17.2794 2.84196 16.8978 3 16.5 3C16.27 3 16.05 2.95 15.85 2.85L12.16 6.55L12.5 7C14.69 5.74 17.26 5 20 5L21 5.03V7.04L20 7C17.42 7 15 7.75 13 9.04C13 9.56003 12.8976 10.075 12.6986 10.5554C12.4996 11.0359 12.2079 11.4724 11.8401 11.8401C11.4724 12.2079 11.0359 12.4996 10.5554 12.6986C10.075 12.8976 9.56003 13 9.04 13C7.75 15 7 17.42 7 20L7.04 21H5.03L5 20C5 17.26 5.74 14.69 7 12.5L6.55 12.16L2.85 15.85C2.95 16.05 3 16.27 3 16.5C3 16.697 2.9612 16.892 2.88582 17.074C2.81044 17.256 2.69995 17.4214 2.56066 17.5607C2.42137 17.6999 2.25601 17.8104 2.07403 17.8858C1.89204 17.9612 1.69698 18 1.5 18C1.10218 18 0.720644 17.842 0.43934 17.5607C0.158035 17.2794 0 16.8978 0 16.5C0 16.1022 0.158035 15.7206 0.43934 15.4393C0.720644 15.158 1.10218 15 1.5 15C1.73 15 1.95 15.05 2.15 15.15L5.84 11.45C5.31 10.78 5 9.92 5 9C5 7.93913 5.42143 6.92172 6.17157 6.17157C6.92172 5.42143 7.93913 5 9 5C9.92 5 10.78 5.31 11.45 5.84L15.15 2.15C15.05 1.95 15 1.73 15 1.5C15 1.10218 15.158 0.720644 15.4393 0.43934C15.7206 0.158035 16.1022 0 16.5 0V0ZM9 7C8.46957 7 7.96086 7.21071 7.58579 7.58579C7.21071 7.96086 7 8.46957 7 9C7 9.53043 7.21071 10.0391 7.58579 10.4142C7.96086 10.7893 8.46957 11 9 11C9.53043 11 10.0391 10.7893 10.4142 10.4142C10.7893 10.0391 11 9.53043 11 9C11 8.46957 10.7893 7.96086 10.4142 7.58579C10.0391 7.21071 9.53043 7 9 7Z" fill="black"/>
</svg>
