<svg width="36" height="36" viewBox="0 0 36 36" fill="none" xmlns="http://www.w3.org/2000/svg">
<path d="M6.06254 0.197937C4.54307 0.197937 3.08584 0.801545 2.01141 1.87597C0.936981 2.9504 0.333374 4.40763 0.333374 5.9271V25.8542C0.333374 26.2686 0.497994 26.666 0.79102 26.959C1.08405 27.2521 1.48147 27.4167 1.89587 27.4167C2.31027 27.4167 2.7077 27.2521 3.00073 26.959C3.29375 26.666 3.45837 26.2686 3.45837 25.8542V5.9271C3.45837 4.4896 4.62504 3.32294 6.06254 3.32294H25.8542C27.2917 3.32294 28.4584 4.4896 28.4584 5.9271V15.4959C29.4438 15.0604 30.5209 14.8709 31.5834 14.9271V5.9271C31.5834 4.40763 30.9798 2.9504 29.9053 1.87597C28.8309 0.801545 27.3737 0.197937 25.8542 0.197937H6.06254V0.197937Z" fill="black"/>
<path d="M34.3043 18.1604L34.0356 17.9417L34.0293 17.9354C33.1221 17.259 32.0019 16.9314 30.8732 17.0124C29.7445 17.0935 28.6826 17.5779 27.8814 18.3771L19.9585 26.4396C19.4668 26.9396 19.1085 27.5417 18.9106 28.2L17.6877 32.2667C16.5802 32.4408 15.4521 32.4366 14.346 32.2542C14.3342 32.2524 14.323 32.2478 14.3133 32.241C14.3035 32.2341 14.2955 32.225 14.2898 32.2145C14.2842 32.204 14.281 32.1924 14.2807 32.1805C14.2803 32.1685 14.2827 32.1567 14.2877 32.1459L14.3585 31.9958L14.3668 31.9813C14.5022 31.6938 14.7418 31.1854 14.8189 30.6625C14.8606 30.3709 14.8752 29.9667 14.7168 29.5375C14.5535 29.0924 14.2435 28.7161 13.8377 28.4709C13.1627 28.0563 12.3231 28.025 11.6022 28.0667C10.8804 28.1194 10.1629 28.2196 9.45432 28.3667C8.49182 28.5542 7.57724 28.9833 6.66474 29.4125C5.46474 29.9792 4.2689 30.5417 2.97515 30.5417C2.51057 30.5417 2.06474 30.4667 1.64599 30.325C1.38974 30.2417 1.10849 30.4479 1.17307 30.7104C1.29182 31.1875 1.51057 31.8313 1.98974 32.325C2.28029 32.6289 2.65011 32.8453 3.05732 32.9499C3.46454 33.0545 3.89289 33.043 4.2939 32.9167C7.32307 32.0271 9.33557 31.5417 10.6439 31.325C10.9189 31.2792 11.1231 31.5563 11.0397 31.8229C10.9085 32.2396 10.721 33.025 11.1106 33.8229C11.5314 34.6875 12.3606 35.05 13.0772 35.1979C15.4585 35.6875 17.5147 35.6229 20.0272 34.9646C20.1356 34.9458 20.246 34.9208 20.3543 34.8854L20.5981 34.8063C20.9677 34.6991 21.3351 34.5845 21.7002 34.4625C21.7569 34.4434 21.8125 34.4211 21.8668 34.3958L24.7564 33.4604C25.4606 33.2333 26.096 32.8438 26.6043 32.325L34.5106 24.2833C36.1481 22.6146 36.1418 20.0438 34.5481 18.3958L34.3043 18.1604V18.1604ZM22.0647 29.0583C22.119 28.881 22.2155 28.7194 22.346 28.5875L30.2689 20.525C30.5048 20.2901 30.8208 20.1531 31.1535 20.1415C31.4862 20.1299 31.811 20.2446 32.0626 20.4625C32.5189 20.8688 32.5835 21.5167 32.2418 21.9917L32.1168 22.1417L24.2168 30.1771C24.076 30.319 23.9031 30.4247 23.7127 30.4854L21.4127 31.2292L22.0647 29.0583V29.0583Z" fill="black"/>
</svg>
