<svg width="38" height="38" viewBox="0 0 38 38" fill="none" xmlns="http://www.w3.org/2000/svg">
<path d="M37.75 6.5C37.75 3.05417 34.9458 0.25 31.5 0.25C30.2118 0.253649 28.9564 0.656188 27.9062 1.40229C26.8561 2.14839 26.0628 3.20143 25.6354 4.41667H12.3646C11.9372 3.20143 11.1439 2.14839 10.0938 1.40229C9.04364 0.656188 7.78819 0.253649 6.5 0.25C3.05417 0.25 0.25 3.05417 0.25 6.5C0.25 9.2125 1.99792 11.5021 4.41667 12.3646V25.6333C3.20177 26.0619 2.14918 26.8558 1.40321 27.9061C0.657247 28.9564 0.254432 30.2117 0.25 31.5C0.25 34.9458 3.05417 37.75 6.5 37.75C7.78819 37.7463 9.04364 37.3438 10.0938 36.5977C11.1439 35.8516 11.9372 34.7986 12.3646 33.5833H25.6333C26.061 34.7984 26.8543 35.8513 27.9044 36.5973C28.9545 37.3434 30.2098 37.746 31.4979 37.75C34.9437 37.75 37.7479 34.9458 37.7479 31.5C37.7435 30.2117 37.3407 28.9564 36.5947 27.9061C35.8487 26.8558 34.7961 26.0619 33.5812 25.6333V12.3667C34.7967 11.9387 35.8499 11.1451 36.5963 10.0947C37.3427 9.04426 37.7457 7.78858 37.75 6.5V6.5ZM31.5 4.41667C31.9126 4.41625 32.3161 4.53826 32.6594 4.76725C33.0026 4.99624 33.2703 5.32192 33.4284 5.70307C33.5865 6.08421 33.6279 6.50369 33.5475 6.90842C33.4671 7.31314 33.2685 7.68492 32.9767 7.97669C32.6849 8.26847 32.3131 8.46713 31.9084 8.54753C31.5037 8.62793 31.0842 8.58646 30.7031 8.42836C30.3219 8.27026 29.9962 8.00264 29.7673 7.65938C29.5383 7.31611 29.4163 6.91263 29.4167 6.5C29.4167 5.35208 30.35 4.41667 31.5 4.41667ZM25.6354 29.4167H12.3646C12.0548 28.5448 11.5548 27.7529 10.9007 27.0985C10.2467 26.444 9.45502 25.9435 8.58333 25.6333V12.3667C9.45502 12.0565 10.2467 11.5559 10.9007 10.9015C11.5548 10.2471 12.0548 9.45519 12.3646 8.58333H25.6333C25.9435 9.45502 26.444 10.2467 27.0985 10.9007C27.7529 11.5548 28.5448 12.0548 29.4167 12.3646V25.6333C28.545 25.9435 27.7533 26.444 27.0993 27.0985C26.4452 27.7529 25.9452 28.5448 25.6354 29.4167V29.4167ZM6.5 4.41667C6.91263 4.41625 7.31611 4.53826 7.65938 4.76725C8.00264 4.99624 8.27026 5.32192 8.42836 5.70307C8.58646 6.08421 8.62793 6.50369 8.54753 6.90842C8.46713 7.31314 8.26847 7.68492 7.97669 7.97669C7.68492 8.26847 7.31314 8.46713 6.90842 8.54753C6.50369 8.62793 6.08421 8.58646 5.70307 8.42836C5.32192 8.27026 4.99624 8.00264 4.76725 7.65938C4.53826 7.31611 4.41625 6.91263 4.41667 6.5C4.41667 5.35208 5.35 4.41667 6.5 4.41667ZM6.5 33.5833C5.96358 33.5593 5.45709 33.3294 5.08599 32.9413C4.71489 32.5532 4.50778 32.037 4.50778 31.5C4.50778 30.963 4.71489 30.4468 5.08599 30.0587C5.45709 29.6706 5.96358 29.4407 6.5 29.4167C7.03642 29.4407 7.54291 29.6706 7.91401 30.0587C8.28511 30.4468 8.49222 30.963 8.49222 31.5C8.49222 32.037 8.28511 32.5532 7.91401 32.9413C7.54291 33.3294 7.03642 33.5593 6.5 33.5833V33.5833ZM31.5 33.5833C30.9636 33.5593 30.4571 33.3294 30.086 32.9413C29.7149 32.5532 29.5078 32.037 29.5078 31.5C29.5078 30.963 29.7149 30.4468 30.086 30.0587C30.4571 29.6706 30.9636 29.4407 31.5 29.4167C32.0364 29.4407 32.5429 29.6706 32.914 30.0587C33.2851 30.4468 33.4922 30.963 33.4922 31.5C33.4922 32.037 33.2851 32.5532 32.914 32.9413C32.5429 33.3294 32.0364 33.5593 31.5 33.5833V33.5833Z" fill="black"/>
</svg>
