<svg width="44" height="32" viewBox="0 0 44 32" fill="none" xmlns="http://www.w3.org/2000/svg">
<path d="M41.2855 13.8375C42.273 15.1292 42.273 16.8729 41.2855 18.1625C38.1751 22.2229 30.7126 30.5833 22.0001 30.5833C13.2876 30.5833 5.82506 22.2229 2.71465 18.1625C2.2342 17.544 1.97339 16.7832 1.97339 16C1.97339 15.2168 2.2342 14.456 2.71465 13.8375C5.82506 9.77707 13.2876 1.41666 22.0001 1.41666C30.7126 1.41666 38.1751 9.77707 41.2855 13.8375V13.8375Z" stroke="black" stroke-width="2" stroke-linecap="round" stroke-linejoin="round"/>
<path d="M22 22.25C25.4518 22.25 28.25 19.4518 28.25 16C28.25 12.5482 25.4518 9.75 22 9.75C18.5482 9.75 15.75 12.5482 15.75 16C15.75 19.4518 18.5482 22.25 22 22.25Z" stroke="black" stroke-width="2" stroke-linecap="round" stroke-linejoin="round"/>
</svg>
