<svg width="50" height="40" viewBox="0 0 50 40" fill="none" xmlns="http://www.w3.org/2000/svg">
<path d="M41.7468 30.1188C47.0624 25.375 49.9999 20 49.9999 20C49.9999 20 40.6249 2.8125 24.9999 2.8125C21.9986 2.82283 19.0313 3.4482 16.2811 4.65L18.6874 7.05938C20.7106 6.32236 22.8466 5.94275 24.9999 5.9375C31.6249 5.9375 37.1218 9.5875 41.1499 13.6156C43.0885 15.5647 44.8264 17.7035 46.3374 20C46.1561 20.2719 45.9561 20.5719 45.728 20.9C44.6811 22.4 43.1343 24.4 41.1499 26.3844C40.6343 26.9 40.0968 27.4094 39.5343 27.9031L41.7468 30.1188Z" fill="black"/>
<path d="M35.3031 23.675C36.0005 21.7245 36.1296 19.6161 35.6755 17.5951C35.2214 15.574 34.2028 13.7235 32.7381 12.2588C31.2734 10.7941 29.4228 9.77545 27.4018 9.32135C25.3808 8.86726 23.2724 8.9964 21.3219 9.69376L23.8938 12.2656C25.0947 12.0937 26.3192 12.2039 27.4702 12.5874C28.6212 12.9709 29.6671 13.6172 30.525 14.475C31.3828 15.3329 32.0291 16.3788 32.4126 17.5298C32.7961 18.6808 32.9063 19.9053 32.7344 21.1063L35.3031 23.675ZM26.1063 27.7344L28.675 30.3031C26.7245 31.0005 24.6161 31.1296 22.5951 30.6755C20.574 30.2214 18.7235 29.2028 17.2588 27.7381C15.7941 26.2734 14.7754 24.4228 14.3214 22.4018C13.8673 20.3808 13.9964 18.2724 14.6938 16.3219L17.2656 18.8938C17.0937 20.0947 17.2039 21.3192 17.5874 22.4702C17.9709 23.6212 18.6172 24.6671 19.475 25.525C20.3329 26.3828 21.3788 27.0291 22.5298 27.4126C23.6808 27.7961 24.9053 27.9063 26.1063 27.7344V27.7344Z" fill="black"/>
<path d="M10.4687 12.0937C9.90625 12.5937 9.36563 13.1 8.85 13.6156C6.91139 15.5646 5.1735 17.7035 3.6625 20L4.27187 20.9C5.31875 22.4 6.86563 24.4 8.85 26.3844C12.8781 30.4125 18.3781 34.0625 25 34.0625C27.2375 34.0625 29.3438 33.6469 31.3125 32.9375L33.7187 35.35C30.9686 36.5517 28.0013 37.1771 25 37.1875C9.375 37.1875 0 20 0 20C0 20 2.93438 14.6219 8.25313 9.88124L10.4656 12.0969L10.4687 12.0937ZM42.6437 39.8562L5.14375 2.35624L7.35625 0.143738L44.8563 37.6437L42.6437 39.8562Z" fill="black"/>
</svg>
