<svg width="42" height="48" viewBox="0 0 42 48" fill="none" xmlns="http://www.w3.org/2000/svg">
<path d="M41.6944 11.9028C41.6987 11.1697 41.5164 10.4476 41.1646 9.80443C40.8127 9.16128 40.303 8.61824 39.6834 8.22647C39.0638 7.83469 38.3547 7.60706 37.6228 7.56501C36.8909 7.52296 36.1603 7.66787 35.4999 7.98611C35.4563 7.24786 35.2286 6.53228 34.8375 5.90461C34.4464 5.27693 33.9045 4.75714 33.261 4.39261C32.6176 4.02808 31.8931 3.83041 31.1537 3.81763C30.4142 3.80485 29.6834 3.97736 29.0277 4.31944C28.9538 3.25781 28.5116 2.25527 27.7775 1.48482C27.0433 0.714363 26.0633 0.224306 25.0065 0.0991984C23.9497 -0.0259089 22.8823 0.221781 21.9886 0.799532C21.0949 1.37728 20.4308 2.24886 20.111 3.26388C19.4145 2.84614 18.6177 2.62533 17.8055 2.625C17.2079 2.62681 16.6165 2.74655 16.0653 2.97734C15.5141 3.20813 15.0138 3.54544 14.5932 3.96994C14.1725 4.39444 13.8398 4.89777 13.6141 5.4511C13.3884 6.00442 13.2741 6.59685 13.2777 7.19444V24.7778C11.4999 22.5556 9.76382 20.3611 9.49993 19.9861C9.09827 19.3483 8.54052 18.8235 7.87946 18.4614C7.2184 18.0993 6.47589 17.9118 5.72216 17.9167C5.08284 17.8973 4.44634 18.0092 3.85196 18.2455C3.25757 18.4817 2.71791 18.8373 2.26629 19.2902C1.81467 19.7431 1.46067 20.2838 1.22614 20.8789C0.991617 21.4739 0.881541 22.1107 0.902711 22.75C1.02771 25.25 5.86104 34.0833 9.11104 38.8889C14.0277 46.1667 18.7222 47.2222 18.9305 47.2222H33.5416C33.8181 47.2192 34.0861 47.1266 34.3055 46.9583C36.7995 44.6599 38.6032 41.7115 39.5138 38.4444C40.9027 34.1528 41.6388 27.9861 41.7083 19.6111L41.6944 11.9028ZM37.1388 37.6667C36.359 40.3101 34.959 42.7291 33.0555 44.7222H19.2916C18.6388 44.5278 15.0277 43.1944 11.1388 37.4306C7.24993 31.6667 3.47216 23.9861 3.40271 22.625C3.39152 22.3343 3.44135 22.0444 3.549 21.7741C3.65664 21.5038 3.81972 21.259 4.02771 21.0556C4.23259 20.8447 4.47926 20.6789 4.75191 20.5689C5.02456 20.4589 5.31719 20.407 5.61104 20.4167C5.97795 20.3953 6.34358 20.4762 6.66726 20.6503C6.99093 20.8244 7.25995 21.0849 7.44438 21.4028C7.84716 22 10.7222 25.5694 12.4027 27.6944L15.7777 25.4167V7.19444C15.7544 6.91123 15.79 6.62626 15.8824 6.35752C15.9747 6.08878 16.1218 5.84211 16.3143 5.63309C16.5068 5.42406 16.7406 5.25722 17.0008 5.1431C17.2611 5.02898 17.5422 4.97006 17.8263 4.97006C18.1105 4.97006 18.3916 5.02898 18.6518 5.1431C18.9121 5.25722 19.1458 5.42406 19.3383 5.63309C19.5308 5.84211 19.6779 6.08878 19.7703 6.35752C19.8626 6.62626 19.8983 6.91123 19.8749 7.19444V22.6667H22.3749V4.61111C22.434 4.10002 22.679 3.6285 23.0631 3.28623C23.4472 2.94397 23.9438 2.75485 24.4583 2.75485C24.9728 2.75485 25.4693 2.94397 25.8534 3.28623C26.2376 3.6285 26.4825 4.10002 26.5416 4.61111V22.8472H29.0416V8.33333C29.0186 8.05948 29.0528 7.78385 29.1418 7.52387C29.2308 7.26389 29.3729 7.02522 29.5589 6.82294C29.7449 6.62067 29.9709 6.4592 30.2225 6.34875C30.4741 6.2383 30.746 6.18128 31.0208 6.18128C31.2956 6.18128 31.5674 6.2383 31.819 6.34875C32.0707 6.4592 32.2966 6.62067 32.4827 6.82294C32.6687 7.02522 32.8107 7.26389 32.8997 7.52387C32.9888 7.78385 33.0229 8.05948 32.9999 8.33333V24.2222H35.4999V11.8611C35.54 11.4006 35.7512 10.9719 36.0919 10.6595C36.4326 10.3472 36.878 10.1739 37.3402 10.1739C37.8024 10.1739 38.2478 10.3472 38.5885 10.6595C38.9292 10.9719 39.1404 11.4006 39.1805 11.8611V19.5694C39.1388 27.7778 38.4722 33.625 37.1388 37.6667V37.6667Z" fill="black"/>
</svg>
