<svg width="36" height="38" viewBox="0 0 36 38" fill="none" xmlns="http://www.w3.org/2000/svg">
<path d="M15.495 0.969979C16.1833 0.351564 17.0759 0.00946045 18.0012 0.00946045C18.9266 0.00946045 19.8192 0.351564 20.5075 0.969979L34.2575 13.325C34.6484 13.6765 34.9611 14.1064 35.1751 14.5866C35.3892 15.0668 35.4999 15.5867 35.5 16.1125V33.75C35.5 34.7445 35.1049 35.6984 34.4016 36.4016C33.6984 37.1049 32.7446 37.5 31.75 37.5H25.5C24.5054 37.5 23.5516 37.1049 22.8483 36.4016C22.1451 35.6984 21.75 34.7445 21.75 33.75V25C21.75 24.6685 21.6183 24.3505 21.3839 24.1161C21.1495 23.8817 20.8315 23.75 20.5 23.75H15.5C15.1685 23.75 14.8505 23.8817 14.6161 24.1161C14.3817 24.3505 14.25 24.6685 14.25 25V33.75C14.25 34.7445 13.8549 35.6984 13.1517 36.4016C12.4484 37.1049 11.4946 37.5 10.5 37.5H4.25C3.25544 37.5 2.30161 37.1049 1.59835 36.4016C0.895088 35.6984 0.5 34.7445 0.5 33.75V16.1125C0.5 15.05 0.95 14.0375 1.745 13.325L15.495 0.969979V0.969979ZM18.835 2.82998C18.6056 2.62407 18.3082 2.51018 18 2.51018C17.6918 2.51018 17.3944 2.62407 17.165 2.82998L3.415 15.185C3.28474 15.3019 3.18049 15.4449 3.109 15.6047C3.03752 15.7644 3.00038 15.9374 3 16.1125V33.75C3 34.0815 3.1317 34.3994 3.36612 34.6339C3.60054 34.8683 3.91848 35 4.25 35H10.5C10.8315 35 11.1495 34.8683 11.3839 34.6339C11.6183 34.3994 11.75 34.0815 11.75 33.75V25C11.75 24.0054 12.1451 23.0516 12.8483 22.3483C13.5516 21.6451 14.5054 21.25 15.5 21.25H20.5C21.4946 21.25 22.4484 21.6451 23.1517 22.3483C23.8549 23.0516 24.25 24.0054 24.25 25V33.75C24.25 34.0815 24.3817 34.3994 24.6161 34.6339C24.8505 34.8683 25.1685 35 25.5 35H31.75C32.0815 35 32.3995 34.8683 32.6339 34.6339C32.8683 34.3994 33 34.0815 33 33.75V16.1125C32.9996 15.9374 32.9625 15.7644 32.891 15.6047C32.8195 15.4449 32.7153 15.3019 32.585 15.185L18.835 2.82998Z" fill="black"/>
</svg>
