<svg width="51" height="44" viewBox="0 0 51 44" fill="none" xmlns="http://www.w3.org/2000/svg">
<path d="M18.7561 14.1875C18.7561 15.4307 18.2622 16.623 17.3832 17.5021C16.5041 18.3811 15.3118 18.875 14.0686 18.875C12.8254 18.875 11.6331 18.3811 10.754 17.5021C9.87496 16.623 9.3811 15.4307 9.3811 14.1875C9.3811 12.9443 9.87496 11.752 10.754 10.8729C11.6331 9.99386 12.8254 9.5 14.0686 9.5C15.3118 9.5 16.5041 9.99386 17.3832 10.8729C18.2622 11.752 18.7561 12.9443 18.7561 14.1875V14.1875Z" fill="black"/>
<path d="M6.2561 0.125C4.5985 0.125 3.00879 0.78348 1.83669 1.95558C0.664584 3.12769 0.00610352 4.7174 0.00610352 6.375V37.625C0.00610352 39.2826 0.664584 40.8723 1.83669 42.0444C3.00879 43.2165 4.5985 43.875 6.2561 43.875H43.7561C45.4137 43.875 47.0034 43.2165 48.1755 42.0444C49.3476 40.8723 50.0061 39.2826 50.0061 37.625V6.375C50.0061 4.7174 49.3476 3.12769 48.1755 1.95558C47.0034 0.78348 45.4137 0.125 43.7561 0.125H6.2561V0.125ZM43.7561 3.25C44.5849 3.25 45.3798 3.57924 45.9658 4.16529C46.5519 4.75134 46.8811 5.5462 46.8811 6.375V26.6875L35.078 20.6031C34.7849 20.4563 34.4531 20.4054 34.1295 20.4576C33.8059 20.5097 33.5069 20.6623 33.2749 20.8937L21.6811 32.4875L13.3686 26.95C13.0685 26.7502 12.7085 26.6603 12.3497 26.6956C11.9908 26.7309 11.6553 26.8893 11.3999 27.1437L3.1311 34.5V6.375C3.1311 5.5462 3.46034 4.75134 4.0464 4.16529C4.63245 3.57924 5.4273 3.25 6.2561 3.25H43.7561Z" fill="black"/>
</svg>
