<svg width="34" height="42" viewBox="0 0 34 42" fill="none" xmlns="http://www.w3.org/2000/svg">
<path d="M29.5 16.8333H10.75V10.5833C10.75 7.13749 13.5542 4.33332 17 4.33332C20.4459 4.33332 23.25 7.13749 23.25 10.5833H27.4167C27.4167 4.83957 22.7438 0.166656 17 0.166656C11.2563 0.166656 6.58337 4.83957 6.58337 10.5833V16.8333H4.50004C3.39497 16.8333 2.33516 17.2723 1.55376 18.0537C0.772361 18.8351 0.333374 19.8949 0.333374 21V37.6667C0.333374 38.7717 0.772361 39.8315 1.55376 40.6129C2.33516 41.3943 3.39497 41.8333 4.50004 41.8333H29.5C30.6051 41.8333 31.6649 41.3943 32.4463 40.6129C33.2277 39.8315 33.6667 38.7717 33.6667 37.6667V21C33.6667 19.8949 33.2277 18.8351 32.4463 18.0537C31.6649 17.2723 30.6051 16.8333 29.5 16.8333ZM12.9605 28.2896C13.2165 27.3092 13.8207 26.4556 14.6602 25.8882C15.4997 25.3208 16.517 25.0783 17.5221 25.2062C18.5273 25.334 19.4515 25.8234 20.1222 26.5829C20.7929 27.3424 21.1642 28.3201 21.1667 29.3333C21.1655 30.062 20.9723 30.7774 20.6066 31.4076C20.2408 32.0378 19.7154 32.5604 19.0834 32.9229V37.6667H14.9167V32.9229C14.1284 32.4712 13.5101 31.7733 13.1567 30.9363C12.8034 30.0994 12.7344 29.1695 12.9605 28.2896V28.2896Z" fill="black"/>
</svg>
