<svg width="34" height="42" viewBox="0 0 34 42" fill="none" xmlns="http://www.w3.org/2000/svg">
<path d="M17 0.166656C11.2563 0.166656 6.58337 4.83957 6.58337 10.5833V16.8333H4.50004C3.39497 16.8333 2.33516 17.2723 1.55376 18.0537C0.772361 18.8351 0.333374 19.8949 0.333374 21V37.6667C0.333374 38.7717 0.772361 39.8315 1.55376 40.6129C2.33516 41.3943 3.39497 41.8333 4.50004 41.8333H29.5C30.6051 41.8333 31.6649 41.3943 32.4463 40.6129C33.2277 39.8315 33.6667 38.7717 33.6667 37.6667V21C33.6667 19.8949 33.2277 18.8351 32.4463 18.0537C31.6649 17.2723 30.6051 16.8333 29.5 16.8333H27.4167V10.5833C27.4167 4.83957 22.7438 0.166656 17 0.166656ZM10.75 10.5833C10.75 7.13749 13.5542 4.33332 17 4.33332C20.4459 4.33332 23.25 7.13749 23.25 10.5833V16.8333H10.75V10.5833ZM19.0834 32.9229V37.6667H14.9167V32.9229C14.1883 32.5058 13.6035 31.8778 13.2393 31.1216C12.875 30.3654 12.7485 29.5165 12.8765 28.687C13.0044 27.8575 13.3807 27.0862 13.9558 26.4748C14.5309 25.8635 15.2778 25.4408 16.098 25.2625C16.7072 25.1278 17.3388 25.1316 17.9464 25.2735C18.5539 25.4154 19.1219 25.692 19.6083 26.0826C20.0948 26.4733 20.4874 26.9682 20.7571 27.5308C21.0268 28.0934 21.1668 28.7094 21.1667 29.3333C21.1655 30.062 20.9723 30.7774 20.6066 31.4076C20.2408 32.0378 19.7154 32.5604 19.0834 32.9229V32.9229Z" fill="black"/>
</svg>
