<svg width="52" height="52" viewBox="0 0 52 52" fill="none" xmlns="http://www.w3.org/2000/svg">
<path d="M20.4531 4.8344C24.4526 6.73925 27.8302 9.73853 30.1947 13.4846C32.5592 17.2307 33.8136 21.5702 33.8125 26C33.8136 30.4299 32.5592 34.7694 30.1947 38.5154C27.8302 42.2615 24.4526 45.2608 20.4531 47.1657C23.6882 48.0102 27.0738 48.102 30.3498 47.4339C33.6259 46.7658 36.7052 45.3556 39.3511 43.3117C41.9971 41.2678 44.1394 38.6446 45.6133 35.6435C47.0873 32.6425 47.8537 29.3435 47.8537 26C47.8537 22.6566 47.0873 19.3576 45.6133 16.3565C44.1394 13.3555 41.9971 10.7323 39.3511 8.68836C36.7052 6.64446 33.6259 5.23429 30.3498 4.5662C27.0738 3.8981 23.6882 3.98985 20.4531 4.8344V4.8344ZM14.0844 4.01878C19.9146 0.858141 26.7616 0.142998 33.119 2.03067C39.4765 3.91834 44.8238 8.2542 47.9844 14.0844C51.145 19.9146 51.8602 26.7616 49.9725 33.1191C48.0848 39.4765 43.749 44.8238 37.9188 47.9844C32.0877 51.1454 25.2398 51.8607 18.8814 49.9727C12.5231 48.0847 7.17513 43.7482 4.01408 37.9172C0.853028 32.0862 0.137816 25.2382 2.02578 18.8799C3.91374 12.5215 8.25023 7.17357 14.0813 4.01253L14.0844 4.01878Z" fill="black"/>
</svg>
