<svg width="36" height="36" viewBox="0 0 36 36" fill="none" xmlns="http://www.w3.org/2000/svg">
<path d="M35.6775 0.32251H25.3225L28.7325 3.73251L23.3035 9.16101L26.8385 12.6965L32.268 7.26751L35.678 10.6775L35.6775 0.32251ZM10.6775 0.32251H0.322522V10.6775L3.73252 7.26751L9.16102 12.6965L12.6965 9.16151L7.26752 3.73201L10.6775 0.32251ZM35.6775 25.3225L32.2675 28.7325L26.839 23.3035L23.3035 26.8385L28.7325 32.268L25.3225 35.678H35.6775V25.3225ZM22.4375 13.5625C20.0015 11.1265 15.9985 11.1265 13.5625 13.5625C11.1265 15.9985 11.1265 20.0015 13.5625 22.4375C15.916 24.7905 19.7185 24.8475 22.171 22.654C22.2667 22.5908 22.356 22.5182 22.4375 22.4375C22.5203 22.3542 22.5945 22.2627 22.659 22.1645C24.847 19.712 24.789 15.914 22.4375 13.5625ZM19.9625 16.0375C21.061 17.136 21.061 18.864 19.9625 19.9625C18.864 21.061 17.136 21.061 16.0375 19.9625C14.939 18.864 14.939 17.136 16.0375 16.0375C17.136 14.939 18.864 14.939 19.9625 16.0375ZM9.16102 23.3035L3.73202 28.7325L0.322021 25.3225V35.6775H10.6775L7.26752 32.2675L12.6965 26.839L9.16102 23.3035Z" fill="black"/>
</svg>
