<svg width="52" height="52" viewBox="0 0 52 52" fill="none" xmlns="http://www.w3.org/2000/svg">
<path fill-rule="evenodd" clip-rule="evenodd" d="M24.8939 1.45624C25.039 1.31073 25.2114 1.19528 25.4013 1.11651C25.5911 1.03774 25.7946 0.997192 26.0001 0.997192C26.2056 0.997192 26.4091 1.03774 26.599 1.11651C26.7888 1.19528 26.9612 1.31073 27.1064 1.45624L33.3564 7.70624C33.5016 7.85151 33.6169 8.02398 33.6955 8.21379C33.7741 8.4036 33.8146 8.60704 33.8146 8.81249C33.8146 9.01794 33.7741 9.22137 33.6955 9.41118C33.6169 9.60099 33.5016 9.77346 33.3564 9.91874C33.2111 10.064 33.0386 10.1792 32.8488 10.2579C32.659 10.3365 32.4556 10.377 32.2501 10.377C32.0447 10.377 31.8412 10.3365 31.6514 10.2579C31.4616 10.1792 31.2891 10.064 31.1439 9.91874L27.5626 6.33436V18.1875C27.5626 18.6019 27.398 18.9993 27.105 19.2923C26.8119 19.5854 26.4145 19.75 26.0001 19.75C25.5857 19.75 25.1883 19.5854 24.8953 19.2923C24.6022 18.9993 24.4376 18.6019 24.4376 18.1875V6.33436L20.8564 9.91874C20.563 10.2121 20.165 10.377 19.7501 10.377C19.3352 10.377 18.9373 10.2121 18.6439 9.91874C18.3505 9.62534 18.1856 9.22741 18.1856 8.81249C18.1856 8.39756 18.3505 7.99963 18.6439 7.70624L24.8939 1.45624V1.45624ZM26.0001 32.25C26.4145 32.25 26.8119 32.4146 27.105 32.7076C27.398 33.0007 27.5626 33.3981 27.5626 33.8125V45.6656L31.1439 42.0812C31.4373 41.7878 31.8352 41.623 32.2501 41.623C32.665 41.623 33.063 41.7878 33.3564 42.0812C33.6498 42.3746 33.8146 42.7726 33.8146 43.1875C33.8146 43.6024 33.6498 44.0003 33.3564 44.2937L27.1064 50.5437C26.9612 50.6892 26.7888 50.8047 26.599 50.8835C26.4091 50.9622 26.2056 51.0028 26.0001 51.0028C25.7946 51.0028 25.5911 50.9622 25.4013 50.8835C25.2114 50.8047 25.039 50.6892 24.8939 50.5437L18.6439 44.2937C18.4986 44.1485 18.3833 43.976 18.3047 43.7862C18.2261 43.5964 18.1856 43.3929 18.1856 43.1875C18.1856 42.982 18.2261 42.7786 18.3047 42.5888C18.3833 42.399 18.4986 42.2265 18.6439 42.0812C18.9373 41.7878 19.3352 41.623 19.7501 41.623C19.9556 41.623 20.159 41.6635 20.3488 41.7421C20.5386 41.8207 20.7111 41.936 20.8564 42.0812L24.4376 45.6656V33.8125C24.4376 33.3981 24.6022 33.0007 24.8953 32.7076C25.1883 32.4146 25.5857 32.25 26.0001 32.25V32.25ZM1.45636 27.1062C1.31085 26.9611 1.1954 26.7887 1.11663 26.5988C1.03786 26.409 0.997314 26.2055 0.997314 26C0.997314 25.7945 1.03786 25.591 1.11663 25.4011C1.1954 25.2113 1.31085 25.0389 1.45636 24.8937L7.70636 18.6437C7.99975 18.3503 8.39768 18.1855 8.81261 18.1855C9.22753 18.1855 9.62546 18.3503 9.91886 18.6437C10.2123 18.9371 10.3771 19.3351 10.3771 19.75C10.3771 20.1649 10.2123 20.5628 9.91886 20.8562L6.33448 24.4375H18.1876C18.602 24.4375 18.9994 24.6021 19.2925 24.8951C19.5855 25.1882 19.7501 25.5856 19.7501 26C19.7501 26.4144 19.5855 26.8118 19.2925 27.1048C18.9994 27.3979 18.602 27.5625 18.1876 27.5625H6.33448L9.91886 31.1437C10.2123 31.4371 10.3771 31.8351 10.3771 32.25C10.3771 32.6649 10.2123 33.0628 9.91886 33.3562C9.62546 33.6496 9.22753 33.8145 8.81261 33.8145C8.39768 33.8145 7.99975 33.6496 7.70636 33.3562L1.45636 27.1062V27.1062ZM32.2501 26C32.2501 25.5856 32.4147 25.1882 32.7078 24.8951C33.0008 24.6021 33.3982 24.4375 33.8126 24.4375H45.6657L42.0814 20.8562C41.9361 20.711 41.8208 20.5385 41.7422 20.3487C41.6636 20.1589 41.6231 19.9554 41.6231 19.75C41.6231 19.5445 41.6636 19.3411 41.7422 19.1513C41.8208 18.9615 41.9361 18.789 42.0814 18.6437C42.3748 18.3503 42.7727 18.1855 43.1876 18.1855C43.3931 18.1855 43.5965 18.226 43.7863 18.3046C43.9761 18.3832 44.1486 18.4985 44.2939 18.6437L50.5439 24.8937C50.6894 25.0389 50.8048 25.2113 50.8836 25.4011C50.9624 25.591 51.0029 25.7945 51.0029 26C51.0029 26.2055 50.9624 26.409 50.8836 26.5988C50.8048 26.7887 50.6894 26.9611 50.5439 27.1062L44.2939 33.3562C44.1486 33.5015 43.9761 33.6167 43.7863 33.6954C43.5965 33.774 43.3931 33.8145 43.1876 33.8145C42.9822 33.8145 42.7787 33.774 42.5889 33.6954C42.3991 33.6167 42.2266 33.5015 42.0814 33.3562C41.9361 33.211 41.8208 33.0385 41.7422 32.8487C41.6636 32.6589 41.6231 32.4554 41.6231 32.25C41.6231 32.0445 41.6636 31.8411 41.7422 31.6513C41.8208 31.4615 41.9361 31.289 42.0814 31.1437L45.6657 27.5625H33.8126C33.3982 27.5625 33.0008 27.3979 32.7078 27.1048C32.4147 26.8118 32.2501 26.4144 32.2501 26Z" fill="black"/>
</svg>
