<svg width="42" height="40" viewBox="0 0 42 40" fill="none" xmlns="http://www.w3.org/2000/svg">
<path d="M18.5 1.25C18.5 0.918479 18.3683 0.600537 18.1339 0.366117C17.8995 0.131696 17.5815 0 17.25 0C16.9185 0 16.6006 0.131696 16.3661 0.366117C16.1317 0.600537 16 0.918479 16 1.25V5C15.4875 5.18 15.0075 5.475 14.6 5.885L1.88252 18.5975C1.53405 18.9458 1.25761 19.3593 1.06901 19.8144C0.880402 20.2695 0.783325 20.7573 0.783325 21.25C0.783325 21.7427 0.880402 22.2305 1.06901 22.6856C1.25761 23.1407 1.53405 23.5543 1.88252 23.9025L12.72 34.74C13.0683 35.0885 13.4818 35.3649 13.9369 35.5535C14.392 35.7421 14.8799 35.8392 15.3725 35.8392C15.8652 35.8392 16.353 35.7421 16.8081 35.5535C17.2633 35.3649 17.6768 35.0885 18.025 34.74L30.7375 22.0275C31.086 21.6793 31.3624 21.2657 31.551 20.8106C31.7396 20.3555 31.8367 19.8677 31.8367 19.375C31.8367 18.8823 31.7396 18.3945 31.551 17.9394C31.3624 17.4843 31.086 17.0708 30.7375 16.7225L19.9025 5.885C19.5073 5.48863 19.0279 5.18617 18.5 5V1.25ZM29.1725 20H4.01752L16 8.0175V11.25C16 11.5815 16.1317 11.8995 16.3661 12.1339C16.6006 12.3683 16.9185 12.5 17.25 12.5C17.5815 12.5 17.8995 12.3683 18.1339 12.1339C18.3683 11.8995 18.5 11.5815 18.5 11.25V8.0175L28.975 18.4925C29.1691 18.6871 29.2936 18.9403 29.3293 19.2128C29.365 19.4853 29.3099 19.762 29.1725 20V20Z" fill="black"/>
<path d="M36.0401 23.48C35.9088 23.2543 35.7205 23.067 35.4941 22.9368C35.2678 22.8066 35.0112 22.7381 34.7501 22.7381C34.489 22.7381 34.2324 22.8066 34.006 22.9368C33.7797 23.067 33.5914 23.2543 33.4601 23.48L29.3301 30.5625C26.8876 34.745 29.9051 40 34.7501 40C39.5926 40 42.6126 34.745 40.1701 30.5625L36.0401 23.48Z" fill="black"/>
</svg>
