<svg width="39" height="39" viewBox="0 0 39 39" fill="none" xmlns="http://www.w3.org/2000/svg">
<path d="M12.1396 36.0562L31.5 16.6958L22.3042 7.49997L2.94375 26.8604C2.67722 27.1273 2.48788 27.4613 2.39583 27.8271L0.25 38.75L11.1708 36.6041C11.5375 36.5125 11.8729 36.3229 12.1396 36.0562V36.0562ZM37.75 10.4458C38.5311 9.66444 38.9699 8.60482 38.9699 7.49997C38.9699 6.39512 38.5311 5.33551 37.75 4.55414L34.4458 1.24997C33.6645 0.468844 32.6048 0.0300293 31.5 0.0300293C30.3951 0.0300293 29.3355 0.468844 28.5542 1.24997L25.25 4.55414L34.4458 13.75L37.75 10.4458Z" fill="black"/>
</svg>
