<svg width="47" height="32" viewBox="0 0 47 32" fill="none" xmlns="http://www.w3.org/2000/svg">
<path d="M1.95312 31.25H44.9219C45.4397 31.2494 45.9361 31.0434 46.3023 30.6773C46.6684 30.3111 46.8744 29.8147 46.875 29.2969V1.95312C46.8744 1.43531 46.6684 0.938867 46.3023 0.572713C45.9361 0.20656 45.4397 0.000594466 44.9219 0H1.95312C1.43531 0.000594466 0.938867 0.20656 0.572714 0.572713C0.20656 0.938867 0.000594466 1.43531 0 1.95312V29.2969C0.000594466 29.8147 0.20656 30.3111 0.572714 30.6773C0.938867 31.0434 1.43531 31.2494 1.95312 31.25V31.25ZM3.125 3.125H43.75V28.125H3.125V3.125Z" fill="black"/>
</svg>
