<svg width="50" height="50" viewBox="0 0 50 50" fill="none" xmlns="http://www.w3.org/2000/svg">
<path d="M1.05 0V0.957H0V3.957H1.5V1.5H4.05V0H1.05V0ZM5.55 0V1.5H8.55V0H5.55V0ZM10.05 0V1.5H13.05V0H10.05ZM14.55 0V1.5H17.55V0H14.55ZM19.05 0V1.5H22.05V0H19.05ZM23.55 0V1.5H26.55V0H23.55ZM28.05 0V1.5H31.05V0H28.05ZM32.55 0V1.5H33.45V2.1H34.95V0H32.55ZM33.45 3.6V6.6H34.95V3.6H33.45V3.6ZM0 5.4565V8.4565H1.5V5.4565H0ZM33.45 8.1V11.1H34.95V8.1H33.45ZM0 9.957V12.957H1.5V9.957H0ZM33.45 12.6V15.6H34.95V12.6H33.45ZM0 14.457V17.457H1.5V14.457H0ZM33.45 17.1V20.1H34.95V17.1H33.45ZM0 18.957V21.957H1.5V18.957H0ZM33.45 21.6V24.6H34.95V21.6H33.45ZM0 23.457V26.457H1.5V23.457H0ZM33.45 26.1V29.1H34.95V26.1H33.45ZM0 27.957V30.5525H1.9045V29.0525H1.5V27.9575H0V27.957ZM3.4045 29.0525V30.5525H6.4045V29.0525H3.4045V29.0525ZM7.9045 29.0525V30.5525H10.9045V29.0525H7.9045ZM12.4045 29.0525V30.5525H15.4045V29.0525H12.4045ZM16.9045 29.0525V30.5525H19.9045V29.0525H16.9045ZM21.4045 29.0525V30.5525H24.4045V29.0525H21.4045ZM25.9045 29.0525V30.5525H28.9045V29.0525H25.9045ZM30.4045 29.0525V30.5525H33.4045V29.0525H30.4045ZM35.2285 30.002C35.0764 29.9925 34.9241 30.0166 34.7823 30.0726C34.6406 30.1287 34.5129 30.2152 34.4084 30.3261C34.3039 30.437 34.2251 30.5696 34.1775 30.7144C34.13 30.8592 34.115 31.0127 34.1335 31.164L35.702 48.002C35.802 48.8195 36.7695 49.2015 37.4005 48.672L40.712 45.9865L42.1965 48.5575C43.05 50.0365 44.405 50.3995 45.884 49.546C47.3625 48.692 47.726 47.3375 46.872 45.8585L45.3925 43.296L49.3165 41.792C50.0905 41.51 50.244 40.482 49.586 39.9865L35.788 30.208C35.6257 30.086 35.4312 30.0144 35.2285 30.002V30.002Z" fill="black"/>
</svg>
