<svg width="44" height="44" viewBox="0 0 44 44" fill="none" xmlns="http://www.w3.org/2000/svg">
<path d="M40.75 12.625H31.375V3.25C31.3742 2.42145 31.0447 1.62708 30.4588 1.0412C29.8729 0.455333 29.0785 0.125827 28.25 0.125H3.25C2.42145 0.125827 1.62708 0.455333 1.0412 1.0412C0.455333 1.62708 0.125827 2.42145 0.125 3.25V28.25C0.125827 29.0785 0.455333 29.8729 1.0412 30.4588C1.62708 31.0447 2.42145 31.3742 3.25 31.375H12.625V40.75C12.6258 41.5785 12.9553 42.3729 13.5412 42.9588C14.1271 43.5447 14.9215 43.8742 15.75 43.875H40.75C41.5785 43.8742 42.3729 43.5447 42.9588 42.9588C43.5447 42.3729 43.8742 41.5785 43.875 40.75V15.75C43.8742 14.9215 43.5447 14.1271 42.9588 13.5412C42.3729 12.9553 41.5785 12.6258 40.75 12.625V12.625ZM3.25 28.25V3.25H28.25V12.625H15.75C14.9215 12.6258 14.1271 12.9553 13.5412 13.5412C12.9553 14.1271 12.6258 14.9215 12.625 15.75V28.25H3.25ZM15.75 40.75V31.375H28.25C29.0785 31.3742 29.8729 31.0447 30.4588 30.4588C31.0447 29.8729 31.3742 29.0785 31.375 28.25V15.75H40.75V40.75H15.75Z" fill="black"/>
</svg>
