<svg width="44" height="44" viewBox="0 0 44 44" fill="none" xmlns="http://www.w3.org/2000/svg">
<path d="M40.75 12.625H31.375V3.25C31.375 2.4212 31.0458 1.62634 30.4597 1.04029C29.8737 0.45424 29.0788 0.125 28.25 0.125H3.25C2.4212 0.125 1.62634 0.45424 1.04029 1.04029C0.45424 1.62634 0.125 2.4212 0.125 3.25V28.25C0.125 29.0788 0.45424 29.8737 1.04029 30.4597C1.62634 31.0458 2.4212 31.375 3.25 31.375H12.625V40.75C12.625 41.5788 12.9542 42.3737 13.5403 42.9597C14.1263 43.5458 14.9212 43.875 15.75 43.875H40.75C41.5788 43.875 42.3737 43.5458 42.9597 42.9597C43.5458 42.3737 43.875 41.5788 43.875 40.75V15.75C43.875 14.9212 43.5458 14.1263 42.9597 13.5403C42.3737 12.9542 41.5788 12.625 40.75 12.625Z" fill="black"/>
</svg>
