<svg width="44" height="44" viewBox="0 0 44 44" fill="none" xmlns="http://www.w3.org/2000/svg">
<path d="M40.75 12.625H31.375V3.25C31.3742 2.42145 31.0447 1.62708 30.4588 1.0412C29.8729 0.455333 29.0785 0.125827 28.25 0.125H3.25C2.42145 0.125827 1.62708 0.455333 1.0412 1.0412C0.455333 1.62708 0.125827 2.42145 0.125 3.25V28.25C0.125827 29.0785 0.455333 29.8729 1.0412 30.4588C1.62708 31.0447 2.42145 31.3742 3.25 31.375H12.625V40.75C12.625 41.5788 12.9542 42.3737 13.5403 42.9597C14.1263 43.5458 14.9212 43.875 15.75 43.875H40.75C41.5788 43.875 42.3737 43.5458 42.9597 42.9597C43.5458 42.3737 43.875 41.5788 43.875 40.75V15.75C43.875 14.9212 43.5458 14.1263 42.9597 13.5403C42.3737 12.9542 41.5788 12.625 40.75 12.625ZM15.75 28.25V15.75H28.25V28.25H15.75ZM3.24844 3.25H28.25V12.625H15.75C14.9215 12.6258 14.1271 12.9553 13.5412 13.5412C12.9553 14.1271 12.6258 14.9215 12.625 15.75V28.25H3.25L3.24844 3.25Z" fill="black"/>
</svg>
