<svg width="42" height="40" viewBox="0 0 42 40" fill="none" xmlns="http://www.w3.org/2000/svg">
<path d="M26.2758 12.7681L26.6247 13.4755L27.4053 13.5889L39.798 15.39C39.7984 15.39 39.7987 15.3901 39.799 15.3901C39.8117 15.3921 39.8201 15.3958 39.8264 15.3996C39.8337 15.404 39.8404 15.4101 39.8456 15.4171C39.8508 15.4241 39.8532 15.4301 39.8542 15.434C39.8549 15.4367 39.8558 15.441 39.8544 15.45L39.8531 15.4583L39.8519 15.4666C39.8506 15.4756 39.8462 15.4877 39.8333 15.5005C39.8332 15.5006 39.833 15.5008 39.8328 15.501L30.8659 24.2434L30.3012 24.7939L30.4346 25.5711L32.5538 37.9197L32.554 37.9209C32.5591 37.9504 32.5398 37.9832 32.5029 37.9896L32.5007 37.99C32.4948 37.991 32.4878 37.9911 32.481 37.9901C32.4744 37.989 32.4712 37.9874 32.4713 37.9874L32.4646 37.9839L21.3757 32.1538L20.6777 31.7868L19.9796 32.1538L8.89075 37.9839L8.88843 37.9851C8.87851 37.9903 8.86731 37.9927 8.85612 37.9919C8.84493 37.9911 8.83418 37.9872 8.8251 37.9806C8.81602 37.974 8.80897 37.965 8.80474 37.9546C8.80052 37.9442 8.7993 37.9328 8.80121 37.9217L8.80155 37.9197L10.9207 25.5711L11.0541 24.7939L10.4894 24.2434L1.51971 15.4983L1.51961 15.4982C1.50729 15.4862 1.50023 15.4697 1.50001 15.4525C1.49979 15.4362 1.50576 15.4203 1.51668 15.4082C1.52885 15.3966 1.54036 15.3924 1.54897 15.3912L1.55257 15.3907L13.95 13.5889L14.7306 13.4755L15.0795 12.7681L20.6179 1.53998C20.6182 1.53949 20.6184 1.53901 20.6187 1.53854C20.6239 1.52855 20.6293 1.52248 20.6346 1.51791C20.641 1.51244 20.6494 1.50738 20.6595 1.50398C20.6696 1.50057 20.6786 1.49969 20.6856 1.50009C20.6914 1.50043 20.698 1.50171 20.707 1.50618L20.7088 1.50704C20.7193 1.51222 20.728 1.52088 20.7331 1.53142L20.7338 1.53272L26.2758 12.7681Z" stroke="black" stroke-width="3"/>
</svg>
