<svg width="50" height="50" viewBox="0 0 50 50" fill="none" xmlns="http://www.w3.org/2000/svg">
<path d="M46.1516 21.5L41 16.3484C40.5354 15.8851 39.9061 15.6249 39.25 15.6249C38.5939 15.6249 37.9646 15.8851 37.5 16.3484L15.625 38.2297V46.875H24.2703L46.1516 25C46.6149 24.5355 46.8751 23.9061 46.8751 23.25C46.8751 22.5939 46.6149 21.9646 46.1516 21.5V21.5ZM22.975 43.75H18.75V39.525L33.5 24.7734L37.7266 28.9984L22.975 43.75ZM39.9375 26.7891L35.7125 22.5641L39.2547 19.0219L43.4797 23.2469L39.9375 26.7891Z" fill="black"/>
<path d="M17.1875 26.5625H20.3125V15.625H25V12.5H12.5V15.625H17.1875V26.5625Z" fill="black"/>
<path d="M12.5 31.25H6.25V6.25H31.25V12.5H34.375V6.25C34.375 5.4212 34.0458 4.62634 33.4597 4.04029C32.8737 3.45424 32.0788 3.125 31.25 3.125H6.25C5.4212 3.125 4.62634 3.45424 4.04029 4.04029C3.45424 4.62634 3.125 5.4212 3.125 6.25V31.25C3.125 32.0788 3.45424 32.8737 4.04029 33.4597C4.62634 34.0458 5.4212 34.375 6.25 34.375H12.5V31.25Z" fill="black"/>
</svg>
