<svg width="29" height="36" viewBox="0 0 29 36" fill="none" xmlns="http://www.w3.org/2000/svg">
<path d="M0 2.375C0 1.87772 0.197544 1.40081 0.549175 1.04917C0.900805 0.697544 1.37772 0.5 1.875 0.5H26.875C27.3723 0.5 27.8492 0.697544 28.2008 1.04917C28.5525 1.40081 28.75 1.87772 28.75 2.375V6.125C28.75 6.62228 28.5525 7.09919 28.2008 7.45083C27.8492 7.80246 27.3723 8 26.875 8C26.3777 8 25.9008 7.80246 25.5492 7.45083C25.1975 7.09919 25 6.62228 25 6.125V4.25H16.25V31.75H19.375C19.8723 31.75 20.3492 31.9475 20.7008 32.2992C21.0525 32.6508 21.25 33.1277 21.25 33.625C21.25 34.1223 21.0525 34.5992 20.7008 34.9508C20.3492 35.3025 19.8723 35.5 19.375 35.5H9.375C8.87772 35.5 8.40081 35.3025 8.04917 34.9508C7.69754 34.5992 7.5 34.1223 7.5 33.625C7.5 33.1277 7.69754 32.6508 8.04917 32.2992C8.40081 31.9475 8.87772 31.75 9.375 31.75H12.5V4.25H3.75V6.125C3.75 6.62228 3.55246 7.09919 3.20083 7.45083C2.84919 7.80246 2.37228 8 1.875 8C1.37772 8 0.900805 7.80246 0.549175 7.45083C0.197544 7.09919 0 6.62228 0 6.125V2.375Z" fill="black"/>
</svg>
